<?xml version="1.0" encoding="UTF-8" standalone="no"?>
<!DOCTYPE svg PUBLIC "-//W3C//DTD SVG 1.1//EN"
 "http://www.w3.org/Graphics/SVG/1.1/DTD/svg11.dtd">
<!-- Generated by graphviz version 2.26.3 (20100126.1600)
 -->
<!-- Title: controllers_diagram Pages: 1 -->
<svg width="733pt" height="707pt"
 viewBox="0.00 0.00 733.00 707.00" xmlns="http://www.w3.org/2000/svg" xmlns:xlink="http://www.w3.org/1999/xlink">
<g id="graph1" class="graph" transform="scale(1 1) rotate(0) translate(4 703)">
<title>controllers_diagram</title>
<polygon fill="white" stroke="white" points="-4,5 -4,-703 730,-703 730,5 -4,5"/>
<!-- _diagram_info -->
<g id="node1" class="node"><title>_diagram_info</title>
<text text-anchor="start" x="459" y="-222.3" font-family="Times Roman,serif" font-size="13.00">Controllers diagram</text>
<text text-anchor="start" x="459" y="-205.3" font-family="Times Roman,serif" font-size="13.00">Date: May 28 2012 &#45; 09:19</text>
<text text-anchor="start" x="459" y="-188.3" font-family="Times Roman,serif" font-size="13.00">Migration version: 20120524142332</text>
<text text-anchor="start" x="459" y="-171.3" font-family="Times Roman,serif" font-size="13.00">Generated by RailRoady 1.0.7</text>
<text text-anchor="start" x="459" y="-154.3" font-family="Times Roman,serif" font-size="13.00">http://railroady.prestonlee.com</text>
</g>
<!-- HomeController -->
<g id="node2" class="node"><title>HomeController</title>
<polyline fill="none" stroke="black" points="13,-397.5 114,-397.5 "/>
<path fill="none" stroke="black" d="M114,-397.5C120,-397.5 126,-403.5 126,-409.5"/>
<polyline fill="none" stroke="black" points="126,-409.5 126,-487.5 "/>
<path fill="none" stroke="black" d="M126,-487.5C126,-493.5 120,-499.5 114,-499.5"/>
<polyline fill="none" stroke="black" points="114,-499.5 13,-499.5 "/>
<path fill="none" stroke="black" d="M13,-499.5C7,-499.5 1,-493.5 1,-487.5"/>
<polyline fill="none" stroke="black" points="1,-487.5 1,-409.5 "/>
<path fill="none" stroke="black" d="M1,-409.5C1,-403.5 7,-397.5 13,-397.5"/>
<text text-anchor="middle" x="63.5" y="-482.9" font-family="Times Roman,serif" font-size="14.00">HomeController</text>
<polyline fill="none" stroke="black" points="1,-473.5 126,-473.5 "/>
<text text-anchor="start" x="9" y="-456.9" font-family="Times Roman,serif" font-size="14.00">index</text>
<polyline fill="none" stroke="black" points="1,-447.5 126,-447.5 "/>
<polyline fill="none" stroke="black" points="1,-423.5 126,-423.5 "/>
<text text-anchor="start" x="9" y="-406.9" font-family="Times Roman,serif" font-size="14.00">_layout</text>
</g>
<!-- MembersController -->
<g id="node3" class="node"><title>MembersController</title>
<polyline fill="none" stroke="black" points="247,-433.5 371,-433.5 "/>
<path fill="none" stroke="black" d="M371,-433.5C377,-433.5 383,-439.5 383,-445.5"/>
<polyline fill="none" stroke="black" points="383,-445.5 383,-613.5 "/>
<path fill="none" stroke="black" d="M383,-613.5C383,-619.5 377,-625.5 371,-625.5"/>
<polyline fill="none" stroke="black" points="371,-625.5 247,-625.5 "/>
<path fill="none" stroke="black" d="M247,-625.5C241,-625.5 235,-619.5 235,-613.5"/>
<polyline fill="none" stroke="black" points="235,-613.5 235,-445.5 "/>
<path fill="none" stroke="black" d="M235,-445.5C235,-439.5 241,-433.5 247,-433.5"/>
<text text-anchor="middle" x="309" y="-608.9" font-family="Times Roman,serif" font-size="14.00">MembersController</text>
<polyline fill="none" stroke="black" points="235,-599.5 383,-599.5 "/>
<text text-anchor="start" x="243" y="-582.9" font-family="Times Roman,serif" font-size="14.00">all</text>
<text text-anchor="start" x="243" y="-564.9" font-family="Times Roman,serif" font-size="14.00">comment</text>
<text text-anchor="start" x="243" y="-546.9" font-family="Times Roman,serif" font-size="14.00">follow</text>
<text text-anchor="start" x="243" y="-528.9" font-family="Times Roman,serif" font-size="14.00">list</text>
<text text-anchor="start" x="243" y="-510.9" font-family="Times Roman,serif" font-size="14.00">unfollow</text>
<text text-anchor="start" x="243" y="-492.9" font-family="Times Roman,serif" font-size="14.00">view</text>
<polyline fill="none" stroke="black" points="235,-483.5 383,-483.5 "/>
<polyline fill="none" stroke="black" points="235,-459.5 383,-459.5 "/>
<text text-anchor="start" x="243" y="-442.9" font-family="Times Roman,serif" font-size="14.00">_layout</text>
</g>
<!-- EventsController -->
<g id="node4" class="node"><title>EventsController</title>
<polyline fill="none" stroke="black" points="31,-37.5 140,-37.5 "/>
<path fill="none" stroke="black" d="M140,-37.5C146,-37.5 152,-43.5 152,-49.5"/>
<polyline fill="none" stroke="black" points="152,-49.5 152,-163.5 "/>
<path fill="none" stroke="black" d="M152,-163.5C152,-169.5 146,-175.5 140,-175.5"/>
<polyline fill="none" stroke="black" points="140,-175.5 31,-175.5 "/>
<path fill="none" stroke="black" d="M31,-175.5C25,-175.5 19,-169.5 19,-163.5"/>
<polyline fill="none" stroke="black" points="19,-163.5 19,-49.5 "/>
<path fill="none" stroke="black" d="M19,-49.5C19,-43.5 25,-37.5 31,-37.5"/>
<text text-anchor="middle" x="85.5" y="-158.9" font-family="Times Roman,serif" font-size="14.00">EventsController</text>
<polyline fill="none" stroke="black" points="19,-149.5 152,-149.5 "/>
<text text-anchor="start" x="27" y="-132.9" font-family="Times Roman,serif" font-size="14.00">create</text>
<text text-anchor="start" x="27" y="-114.9" font-family="Times Roman,serif" font-size="14.00">list</text>
<text text-anchor="start" x="27" y="-96.9" font-family="Times Roman,serif" font-size="14.00">update</text>
<polyline fill="none" stroke="black" points="19,-87.5 152,-87.5 "/>
<polyline fill="none" stroke="black" points="19,-63.5 152,-63.5 "/>
<text text-anchor="start" x="27" y="-46.9" font-family="Times Roman,serif" font-size="14.00">_layout</text>
</g>
<!-- CommunityController -->
<g id="node5" class="node"><title>CommunityController</title>
<polyline fill="none" stroke="black" points="463,-271.5 604,-271.5 "/>
<path fill="none" stroke="black" d="M604,-271.5C610,-271.5 616,-277.5 616,-283.5"/>
<polyline fill="none" stroke="black" points="616,-283.5 616,-361.5 "/>
<path fill="none" stroke="black" d="M616,-361.5C616,-367.5 610,-373.5 604,-373.5"/>
<polyline fill="none" stroke="black" points="604,-373.5 463,-373.5 "/>
<path fill="none" stroke="black" d="M463,-373.5C457,-373.5 451,-367.5 451,-361.5"/>
<polyline fill="none" stroke="black" points="451,-361.5 451,-283.5 "/>
<path fill="none" stroke="black" d="M451,-283.5C451,-277.5 457,-271.5 463,-271.5"/>
<text text-anchor="middle" x="533.5" y="-356.9" font-family="Times Roman,serif" font-size="14.00">CommunityController</text>
<polyline fill="none" stroke="black" points="451,-347.5 616,-347.5 "/>
<text text-anchor="start" x="459" y="-330.9" font-family="Times Roman,serif" font-size="14.00">index</text>
<polyline fill="none" stroke="black" points="451,-321.5 616,-321.5 "/>
<polyline fill="none" stroke="black" points="451,-297.5 616,-297.5 "/>
<text text-anchor="start" x="459" y="-280.9" font-family="Times Roman,serif" font-size="14.00">_layout</text>
</g>
<!-- ManualController -->
<g id="node6" class="node"><title>ManualController</title>
<polyline fill="none" stroke="black" points="355,-1.5 467,-1.5 "/>
<path fill="none" stroke="black" d="M467,-1.5C473,-1.5 479,-7.5 479,-13.5"/>
<polyline fill="none" stroke="black" points="479,-13.5 479,-91.5 "/>
<path fill="none" stroke="black" d="M479,-91.5C479,-97.5 473,-103.5 467,-103.5"/>
<polyline fill="none" stroke="black" points="467,-103.5 355,-103.5 "/>
<path fill="none" stroke="black" d="M355,-103.5C349,-103.5 343,-97.5 343,-91.5"/>
<polyline fill="none" stroke="black" points="343,-91.5 343,-13.5 "/>
<path fill="none" stroke="black" d="M343,-13.5C343,-7.5 349,-1.5 355,-1.5"/>
<text text-anchor="middle" x="411" y="-86.9" font-family="Times Roman,serif" font-size="14.00">ManualController</text>
<polyline fill="none" stroke="black" points="343,-77.5 479,-77.5 "/>
<text text-anchor="start" x="351" y="-60.9" font-family="Times Roman,serif" font-size="14.00">index</text>
<polyline fill="none" stroke="black" points="343,-51.5 479,-51.5 "/>
<polyline fill="none" stroke="black" points="343,-27.5 479,-27.5 "/>
<text text-anchor="start" x="351" y="-10.9" font-family="Times Roman,serif" font-size="14.00">_layout</text>
</g>
<!-- LibraryController -->
<g id="node7" class="node"><title>LibraryController</title>
<polyline fill="none" stroke="black" points="427,-595.5 537,-595.5 "/>
<path fill="none" stroke="black" d="M537,-595.5C543,-595.5 549,-601.5 549,-607.5"/>
<polyline fill="none" stroke="black" points="549,-607.5 549,-685.5 "/>
<path fill="none" stroke="black" d="M549,-685.5C549,-691.5 543,-697.5 537,-697.5"/>
<polyline fill="none" stroke="black" points="537,-697.5 427,-697.5 "/>
<path fill="none" stroke="black" d="M427,-697.5C421,-697.5 415,-691.5 415,-685.5"/>
<polyline fill="none" stroke="black" points="415,-685.5 415,-607.5 "/>
<path fill="none" stroke="black" d="M415,-607.5C415,-601.5 421,-595.5 427,-595.5"/>
<text text-anchor="middle" x="482" y="-680.9" font-family="Times Roman,serif" font-size="14.00">LibraryController</text>
<polyline fill="none" stroke="black" points="415,-671.5 549,-671.5 "/>
<text text-anchor="start" x="423" y="-654.9" font-family="Times Roman,serif" font-size="14.00">index</text>
<polyline fill="none" stroke="black" points="415,-645.5 549,-645.5 "/>
<polyline fill="none" stroke="black" points="415,-621.5 549,-621.5 "/>
<text text-anchor="start" x="423" y="-604.9" font-family="Times Roman,serif" font-size="14.00">_layout</text>
</g>
<!-- CalendarController -->
<g id="node8" class="node"><title>CalendarController</title>
<polyline fill="none" stroke="black" points="589,-595.5 712,-595.5 "/>
<path fill="none" stroke="black" d="M712,-595.5C718,-595.5 724,-601.5 724,-607.5"/>
<polyline fill="none" stroke="black" points="724,-607.5 724,-685.5 "/>
<path fill="none" stroke="black" d="M724,-685.5C724,-691.5 718,-697.5 712,-697.5"/>
<polyline fill="none" stroke="black" points="712,-697.5 589,-697.5 "/>
<path fill="none" stroke="black" d="M589,-697.5C583,-697.5 577,-691.5 577,-685.5"/>
<polyline fill="none" stroke="black" points="577,-685.5 577,-607.5 "/>
<path fill="none" stroke="black" d="M577,-607.5C577,-601.5 583,-595.5 589,-595.5"/>
<text text-anchor="middle" x="650.5" y="-680.9" font-family="Times Roman,serif" font-size="14.00">CalendarController</text>
<polyline fill="none" stroke="black" points="577,-671.5 724,-671.5 "/>
<text text-anchor="start" x="585" y="-654.9" font-family="Times Roman,serif" font-size="14.00">index</text>
<polyline fill="none" stroke="black" points="577,-645.5 724,-645.5 "/>
<polyline fill="none" stroke="black" points="577,-621.5 724,-621.5 "/>
<text text-anchor="start" x="585" y="-604.9" font-family="Times Roman,serif" font-size="14.00">_layout</text>
</g>
<!-- UsersController -->
<g id="node9" class="node"><title>UsersController</title>
<polyline fill="none" stroke="black" points="427,-433.5 650,-433.5 "/>
<path fill="none" stroke="black" d="M650,-433.5C656,-433.5 662,-439.5 662,-445.5"/>
<polyline fill="none" stroke="black" points="662,-445.5 662,-541.5 "/>
<path fill="none" stroke="black" d="M662,-541.5C662,-547.5 656,-553.5 650,-553.5"/>
<polyline fill="none" stroke="black" points="650,-553.5 427,-553.5 "/>
<path fill="none" stroke="black" d="M427,-553.5C421,-553.5 415,-547.5 415,-541.5"/>
<polyline fill="none" stroke="black" points="415,-541.5 415,-445.5 "/>
<path fill="none" stroke="black" d="M415,-445.5C415,-439.5 421,-433.5 427,-433.5"/>
<text text-anchor="middle" x="538.5" y="-536.9" font-family="Times Roman,serif" font-size="14.00">UsersController</text>
<polyline fill="none" stroke="black" points="415,-527.5 662,-527.5 "/>
<text text-anchor="start" x="423" y="-510.9" font-family="Times Roman,serif" font-size="14.00">_one_time_conditions_valid_311?</text>
<text text-anchor="start" x="423" y="-492.9" font-family="Times Roman,serif" font-size="14.00">show</text>
<polyline fill="none" stroke="black" points="415,-483.5 662,-483.5 "/>
<polyline fill="none" stroke="black" points="415,-459.5 662,-459.5 "/>
<text text-anchor="start" x="423" y="-442.9" font-family="Times Roman,serif" font-size="14.00">_layout</text>
</g>
<!-- MessagesController -->
<g id="node10" class="node"><title>MessagesController</title>
<polyline fill="none" stroke="black" points="67,-541.5 194,-541.5 "/>
<path fill="none" stroke="black" d="M194,-541.5C200,-541.5 206,-547.5 206,-553.5"/>
<polyline fill="none" stroke="black" points="206,-553.5 206,-685.5 "/>
<path fill="none" stroke="black" d="M206,-685.5C206,-691.5 200,-697.5 194,-697.5"/>
<polyline fill="none" stroke="black" points="194,-697.5 67,-697.5 "/>
<path fill="none" stroke="black" d="M67,-697.5C61,-697.5 55,-691.5 55,-685.5"/>
<polyline fill="none" stroke="black" points="55,-685.5 55,-553.5 "/>
<path fill="none" stroke="black" d="M55,-553.5C55,-547.5 61,-541.5 67,-541.5"/>
<text text-anchor="middle" x="130.5" y="-680.9" font-family="Times Roman,serif" font-size="14.00">MessagesController</text>
<polyline fill="none" stroke="black" points="55,-671.5 206,-671.5 "/>
<text text-anchor="start" x="63" y="-654.9" font-family="Times Roman,serif" font-size="14.00">compose</text>
<text text-anchor="start" x="63" y="-636.9" font-family="Times Roman,serif" font-size="14.00">create</text>
<text text-anchor="start" x="63" y="-618.9" font-family="Times Roman,serif" font-size="14.00">index</text>
<text text-anchor="start" x="63" y="-600.9" font-family="Times Roman,serif" font-size="14.00">notifications</text>
<polyline fill="none" stroke="black" points="55,-591.5 206,-591.5 "/>
<polyline fill="none" stroke="black" points="55,-567.5 206,-567.5 "/>
<text text-anchor="start" x="63" y="-550.9" font-family="Times Roman,serif" font-size="14.00">_layout</text>
</g>
<!-- ApplicationController -->
<g id="node11" class="node"><title>ApplicationController</title>
<polyline fill="none" stroke="black" points="175,-217.5 398,-217.5 "/>
<path fill="none" stroke="black" d="M398,-217.5C404,-217.5 410,-223.5 410,-229.5"/>
<polyline fill="none" stroke="black" points="410,-229.5 410,-379.5 "/>
<path fill="none" stroke="black" d="M410,-379.5C410,-385.5 404,-391.5 398,-391.5"/>
<polyline fill="none" stroke="black" points="398,-391.5 175,-391.5 "/>
<path fill="none" stroke="black" d="M175,-391.5C169,-391.5 163,-385.5 163,-379.5"/>
<polyline fill="none" stroke="black" points="163,-379.5 163,-229.5 "/>
<path fill="none" stroke="black" d="M163,-229.5C163,-223.5 169,-217.5 175,-217.5"/>
<text text-anchor="middle" x="286.5" y="-374.9" font-family="Times Roman,serif" font-size="14.00">ApplicationController</text>
<polyline fill="none" stroke="black" points="163,-365.5 410,-365.5 "/>
<text text-anchor="start" x="171" y="-348.9" font-family="Times Roman,serif" font-size="14.00">_one_time_conditions_valid_215?</text>
<text text-anchor="start" x="171" y="-330.9" font-family="Times Roman,serif" font-size="14.00">_one_time_conditions_valid_217?</text>
<text text-anchor="start" x="171" y="-312.9" font-family="Times Roman,serif" font-size="14.00">current_ability</text>
<text text-anchor="start" x="171" y="-294.9" font-family="Times Roman,serif" font-size="14.00">search</text>
<text text-anchor="start" x="171" y="-276.9" font-family="Times Roman,serif" font-size="14.00">treat_errors</text>
<polyline fill="none" stroke="black" points="163,-267.5 410,-267.5 "/>
<polyline fill="none" stroke="black" points="163,-243.5 410,-243.5 "/>
<text text-anchor="start" x="171" y="-226.9" font-family="Times Roman,serif" font-size="14.00">_layout</text>
</g>
<!-- ProfileController -->
<g id="node12" class="node"><title>ProfileController</title>
<polyline fill="none" stroke="black" points="193,-37.5 298,-37.5 "/>
<path fill="none" stroke="black" d="M298,-37.5C304,-37.5 310,-43.5 310,-49.5"/>
<polyline fill="none" stroke="black" points="310,-49.5 310,-163.5 "/>
<path fill="none" stroke="black" d="M310,-163.5C310,-169.5 304,-175.5 298,-175.5"/>
<polyline fill="none" stroke="black" points="298,-175.5 193,-175.5 "/>
<path fill="none" stroke="black" d="M193,-175.5C187,-175.5 181,-169.5 181,-163.5"/>
<polyline fill="none" stroke="black" points="181,-163.5 181,-49.5 "/>
<path fill="none" stroke="black" d="M181,-49.5C181,-43.5 187,-37.5 193,-37.5"/>
<text text-anchor="middle" x="245.5" y="-158.9" font-family="Times Roman,serif" font-size="14.00">ProfileController</text>
<polyline fill="none" stroke="black" points="181,-149.5 310,-149.5 "/>
<text text-anchor="start" x="189" y="-132.9" font-family="Times Roman,serif" font-size="14.00">crop_update</text>
<text text-anchor="start" x="189" y="-114.9" font-family="Times Roman,serif" font-size="14.00">index</text>
<text text-anchor="start" x="189" y="-96.9" font-family="Times Roman,serif" font-size="14.00">settings</text>
<polyline fill="none" stroke="black" points="181,-87.5 310,-87.5 "/>
<polyline fill="none" stroke="black" points="181,-63.5 310,-63.5 "/>
<text text-anchor="start" x="189" y="-46.9" font-family="Times Roman,serif" font-size="14.00">_layout</text>
</g>
</g>
</svg>
