<?xml version="1.0" encoding="UTF-8" standalone="no"?>
<!DOCTYPE svg PUBLIC "-//W3C//DTD SVG 1.1//EN"
 "http://www.w3.org/Graphics/SVG/1.1/DTD/svg11.dtd">
<!-- Generated by graphviz version 2.26.3 (20100126.1600)
 -->
<!-- Title: models_diagram Pages: 1 -->
<svg width="1965pt" height="454pt"
 viewBox="0.00 0.00 1965.00 454.00" xmlns="http://www.w3.org/2000/svg" xmlns:xlink="http://www.w3.org/1999/xlink">
<g id="graph1" class="graph" transform="scale(1 1) rotate(0) translate(4 450)">
<title>models_diagram</title>
<polygon fill="white" stroke="white" points="-4,5 -4,-450 1962,-450 1962,5 -4,5"/>
<!-- _diagram_info -->
<g id="node1" class="node"><title>_diagram_info</title>
<text text-anchor="start" x="636" y="-429.8" font-family="Times Roman,serif" font-size="13.00">Models diagram</text>
<text text-anchor="start" x="636" y="-412.8" font-family="Times Roman,serif" font-size="13.00">Date: May 28 2012 &#45; 09:19</text>
<text text-anchor="start" x="636" y="-395.8" font-family="Times Roman,serif" font-size="13.00">Migration version: 20120524142332</text>
<text text-anchor="start" x="636" y="-378.8" font-family="Times Roman,serif" font-size="13.00">Generated by RailRoady 1.0.7</text>
<text text-anchor="start" x="636" y="-361.8" font-family="Times Roman,serif" font-size="13.00">http://railroady.prestonlee.com</text>
</g>
<!-- NamedList -->
<g id="node2" class="node"><title>NamedList</title>
<ellipse fill="none" stroke="black" cx="339" cy="-203" rx="62.9325" ry="18.3848"/>
<text text-anchor="middle" x="339" y="-199.4" font-family="Times Roman,serif" font-size="14.00">NamedList</text>
</g>
<!-- NamedListEntry -->
<g id="node6" class="node"><title>NamedListEntry</title>
<ellipse fill="none" stroke="black" cx="141" cy="-111" rx="90.0096" ry="18.3848"/>
<text text-anchor="middle" x="141" y="-107.4" font-family="Times Roman,serif" font-size="14.00">NamedListEntry</text>
</g>
<!-- NamedList&#45;&gt;NamedListEntry -->
<g id="edge2" class="edge"><title>NamedList&#45;&gt;NamedListEntry</title>
<path fill="none" stroke="#f50729" d="M297.639,-183.782C265.238,-168.727 220.196,-147.798 186.725,-132.246"/>
<ellipse fill="none" stroke="#f50729" cx="301.335" cy="-185.499" rx="4.00002" ry="4.00002"/>
<polygon fill="#f50729" stroke="#f50729" points="186.68,-132.225 179.507,-123.93 182.146,-130.118 177.611,-128.011 177.611,-128.011 177.611,-128.011 182.146,-130.118 175.715,-132.092 186.68,-132.225 186.68,-132.225"/>
<text text-anchor="middle" x="281.5" y="-153.4" font-family="Times Roman,serif" font-size="14.00">entries</text>
</g>
<!-- TimelineEntry -->
<g id="node13" class="node"><title>TimelineEntry</title>
<ellipse fill="none" stroke="black" cx="1056" cy="-111" rx="79.9031" ry="18.3848"/>
<text text-anchor="middle" x="1056" y="-107.4" font-family="Times Roman,serif" font-size="14.00">TimelineEntry</text>
</g>
<!-- NamedList&#45;&gt;TimelineEntry -->
<g id="edge6" class="edge"><title>NamedList&#45;&gt;TimelineEntry</title>
<path fill="none" stroke="#759f48" d="M404.509,-194.27C432.637,-190.729 465.895,-186.819 496,-184 616.184,-172.745 647.265,-181.312 767,-166 843.626,-156.201 930.588,-138.782 988.925,-126.168"/>
<ellipse fill="none" stroke="#759f48" cx="400.306" cy="-194.803" rx="4.00001" ry="4.00001"/>
<polygon fill="#759f48" stroke="#759f48" points="988.984,-126.155 999.712,-128.426 993.869,-125.092 998.755,-124.029 998.755,-124.029 998.755,-124.029 993.869,-125.092 997.798,-119.632 988.984,-126.155 988.984,-126.155"/>
</g>
<!-- ListPermission -->
<g id="node18" class="node"><title>ListPermission</title>
<ellipse fill="none" stroke="black" cx="330" cy="-111" rx="80.8184" ry="18.3848"/>
<text text-anchor="middle" x="330" y="-107.4" font-family="Times Roman,serif" font-size="14.00">ListPermission</text>
</g>
<!-- NamedList&#45;&gt;ListPermission -->
<g id="edge4" class="edge"><title>NamedList&#45;&gt;ListPermission</title>
<path fill="none" stroke="#9cca70" d="M336.362,-176.029C335.243,-164.599 333.939,-151.267 332.804,-139.66"/>
<ellipse fill="none" stroke="#9cca70" cx="336.789" cy="-180.401" rx="4" ry="4"/>
<polygon fill="#9cca70" stroke="#9cca70" points="332.792,-139.542 336.297,-129.152 332.305,-134.566 331.819,-129.59 331.819,-129.59 331.819,-129.59 332.305,-134.566 327.34,-130.028 332.792,-139.542 332.792,-139.542"/>
</g>
<!-- Ability -->
<g id="node3" class="node"><title>Ability</title>
<polygon fill="none" stroke="black" points="1042,-417 982,-417 982,-381 1042,-381 1042,-417"/>
<text text-anchor="middle" x="1012" y="-395.4" font-family="Times Roman,serif" font-size="14.00">Ability</text>
</g>
<!-- Followship -->
<g id="node4" class="node"><title>Followship</title>
<ellipse fill="none" stroke="black" cx="568" cy="-203" rx="62.9325" ry="18.3848"/>
<text text-anchor="middle" x="568" y="-199.4" font-family="Times Roman,serif" font-size="14.00">Followship</text>
</g>
<!-- ActsAsActivity::Activity -->
<g id="node23" class="node"><title>ActsAsActivity::Activity</title>
<ellipse fill="none" stroke="black" cx="794" cy="-111" rx="123.951" ry="18.3848"/>
<text text-anchor="middle" x="794" y="-107.4" font-family="Times Roman,serif" font-size="14.00">ActsAsActivity::Activity</text>
</g>
<!-- Followship&#45;&gt;ActsAsActivity::Activity -->
<g id="edge8" class="edge"><title>Followship&#45;&gt;ActsAsActivity::Activity</title>
<path fill="none" stroke="#efc295" d="M612.847,-184.744C649.888,-169.665 702.527,-148.237 741.523,-132.362"/>
<ellipse fill="none" stroke="#efc295" cx="608.771" cy="-186.403" rx="4.00001" ry="4.00001"/>
<polygon fill="#efc295" stroke="#efc295" points="741.864,-132.224 752.822,-132.621 746.495,-130.338 751.126,-128.453 751.126,-128.453 751.126,-128.453 746.495,-130.338 749.429,-124.285 741.864,-132.224 741.864,-132.224"/>
<text text-anchor="middle" x="732" y="-153.4" font-family="Times Roman,serif" font-size="14.00">activities</text>
</g>
<!-- SubjectPermission -->
<g id="node5" class="node"><title>SubjectPermission</title>
<ellipse fill="none" stroke="black" cx="748" cy="-203" rx="99.201" ry="18.3848"/>
<text text-anchor="middle" x="748" y="-199.4" font-family="Times Roman,serif" font-size="14.00">SubjectPermission</text>
</g>
<!-- Event -->
<g id="node7" class="node"><title>Event</title>
<ellipse fill="none" stroke="black" cx="1100" cy="-399" rx="39.8075" ry="18.3848"/>
<text text-anchor="middle" x="1100" y="-395.4" font-family="Times Roman,serif" font-size="14.00">Event</text>
</g>
<!-- Timeline -->
<g id="node8" class="node"><title>Timeline</title>
<ellipse fill="none" stroke="black" cx="1667" cy="-203" rx="51.8276" ry="18.3848"/>
<text text-anchor="middle" x="1667" y="-199.4" font-family="Times Roman,serif" font-size="14.00">Timeline</text>
</g>
<!-- Timeline&#45;&gt;TimelineEntry -->
<g id="edge12" class="edge"><title>Timeline&#45;&gt;TimelineEntry</title>
<path fill="none" stroke="#053771" d="M1662.81,-176.594C1659.72,-165.963 1654.34,-154.662 1645,-148 1611.58,-124.165 1316.96,-132.766 1276,-130 1231.13,-126.969 1181.19,-122.726 1140.24,-119.019"/>
<ellipse fill="none" stroke="#053771" cx="1663.81" cy="-180.621" rx="4.00001" ry="4.00001"/>
<polygon fill="#053771" stroke="#053771" points="1139.99,-118.996 1130.44,-113.607 1135.01,-118.542 1130.03,-118.089 1130.03,-118.089 1130.03,-118.089 1135.01,-118.542 1129.63,-122.57 1139.99,-118.996 1139.99,-118.996"/>
<text text-anchor="middle" x="1682.5" y="-153.4" font-family="Times Roman,serif" font-size="14.00">entries</text>
</g>
<!-- ActsAsCommentable::Comment -->
<g id="node25" class="node"><title>ActsAsCommentable::Comment</title>
<ellipse fill="none" stroke="black" cx="1769" cy="-19" rx="164.756" ry="18.3848"/>
<text text-anchor="middle" x="1769" y="-15.4" font-family="Times Roman,serif" font-size="14.00">ActsAsCommentable::Comment</text>
</g>
<!-- Timeline&#45;&gt;ActsAsCommentable::Comment -->
<g id="edge10" class="edge"><title>Timeline&#45;&gt;ActsAsCommentable::Comment</title>
<path fill="none" stroke="#5f9fc5" d="M1697.36,-180.965C1702.35,-176.411 1707.15,-171.355 1711,-166 1737.49,-129.185 1753.95,-78.6184 1762.29,-47.4121"/>
<ellipse fill="none" stroke="#5f9fc5" cx="1694.01" cy="-183.843" rx="4.00002" ry="4.00002"/>
<polygon fill="#5f9fc5" stroke="#5f9fc5" points="1762.32,-47.3036 1769.17,-38.7405 1763.57,-42.4614 1764.81,-37.6191 1764.81,-37.6191 1764.81,-37.6191 1763.57,-42.4614 1760.46,-36.4977 1762.32,-47.3036 1762.32,-47.3036"/>
<text text-anchor="middle" x="1809" y="-107.4" font-family="Times Roman,serif" font-size="14.00">comment_threads</text>
</g>
<!-- User -->
<g id="node9" class="node"><title>User</title>
<ellipse fill="none" stroke="black" cx="930" cy="-399" rx="33.9411" ry="18.3848"/>
<text text-anchor="middle" x="930" y="-395.4" font-family="Times Roman,serif" font-size="14.00">User</text>
</g>
<!-- Person -->
<g id="node10" class="node"><title>Person</title>
<ellipse fill="none" stroke="black" cx="930" cy="-295" rx="44.0472" ry="18.3848"/>
<text text-anchor="middle" x="930" y="-291.4" font-family="Times Roman,serif" font-size="14.00">Person</text>
</g>
<!-- User&#45;&gt;Person -->
<g id="edge14" class="edge"><title>User&#45;&gt;Person</title>
<path fill="none" stroke="#47bdf1" d="M930,-371.926C930,-356.511 930,-337.267 930,-321.883"/>
<ellipse fill="none" stroke="#47bdf1" cx="930" cy="-376.407" rx="4" ry="4"/>
<ellipse fill="#47bdf1" stroke="#47bdf1" cx="930" cy="-317.783" rx="4" ry="4"/>
</g>
<!-- Person&#45;&gt;NamedList -->
<g id="edge42" class="edge"><title>Person&#45;&gt;NamedList</title>
<path fill="none" stroke="#dff1ae" d="M877.53,-293.37C751.745,-289.177 440.217,-276.994 397,-258 382.484,-251.62 369.371,-239.978 359.3,-229.042"/>
<ellipse fill="none" stroke="#dff1ae" cx="881.903" cy="-293.514" rx="4" ry="4"/>
<polygon fill="#dff1ae" stroke="#dff1ae" points="359.107,-228.821 355.918,-218.329 355.818,-225.055 352.529,-221.29 352.529,-221.29 352.529,-221.29 355.818,-225.055 349.14,-224.25 359.107,-228.821 359.107,-228.821"/>
<text text-anchor="middle" x="411" y="-245.4" font-family="Times Roman,serif" font-size="14.00">lists</text>
</g>
<!-- Person&#45;&gt;Followship -->
<g id="edge38" class="edge"><title>Person&#45;&gt;Followship</title>
<path fill="none" stroke="#cb4b43" d="M878.55,-290.534C813.037,-284.374 703.8,-272.384 666,-258 652.521,-252.871 651.413,-247.343 639,-240 629.662,-234.476 619.418,-228.881 609.689,-223.771"/>
<ellipse fill="none" stroke="#cb4b43" cx="882.724" cy="-290.921" rx="4" ry="4"/>
<polygon fill="#cb4b43" stroke="#cb4b43" points="609.441,-223.643 602.636,-215.045 605.003,-221.342 600.564,-219.04 600.564,-219.04 600.564,-219.04 605.003,-221.342 598.492,-223.035 609.441,-223.643 609.441,-223.643"/>
<text text-anchor="middle" x="737" y="-245.4" font-family="Times Roman,serif" font-size="14.00">received_followships</text>
</g>
<!-- Person&#45;&gt;Followship -->
<g id="edge40" class="edge"><title>Person&#45;&gt;Followship</title>
<path fill="none" stroke="#55f494" d="M877.705,-294.121C772.793,-291.814 544.616,-283.849 521,-258 511.549,-247.655 519.261,-235.881 530.972,-225.889"/>
<ellipse fill="none" stroke="#55f494" cx="881.952" cy="-294.211" rx="4" ry="4"/>
<polygon fill="#55f494" stroke="#55f494" points="531.189,-225.722 541.855,-223.175 535.147,-222.667 539.105,-219.612 539.105,-219.612 539.105,-219.612 535.147,-222.667 536.356,-216.05 531.189,-225.722 531.189,-225.722"/>
<text text-anchor="middle" x="578" y="-245.4" font-family="Times Roman,serif" font-size="14.00">sent_followships</text>
</g>
<!-- Person&#45;&gt;SubjectPermission -->
<g id="edge44" class="edge"><title>Person&#45;&gt;SubjectPermission</title>
<path fill="none" stroke="#e4cb13" d="M890.753,-278.938C876.224,-272.726 859.714,-265.348 845,-258 825.385,-248.204 804.14,-236.31 786.546,-226.093"/>
<ellipse fill="none" stroke="#e4cb13" cx="894.467" cy="-280.513" rx="4.00002" ry="4.00002"/>
<polygon fill="#e4cb13" stroke="#e4cb13" points="786.339,-225.971 779.979,-217.038 782.023,-223.447 777.707,-220.922 777.707,-220.922 777.707,-220.922 782.023,-223.447 775.435,-224.807 786.339,-225.971 786.339,-225.971"/>
<text text-anchor="middle" x="885.5" y="-245.4" font-family="Times Roman,serif" font-size="14.00">permissions</text>
</g>
<!-- Person&#45;&gt;Timeline -->
<g id="edge36" class="edge"><title>Person&#45;&gt;Timeline</title>
<path fill="none" stroke="#d427a8" d="M982.563,-294.383C1111.82,-292.462 1442.41,-284.983 1549,-258 1578.85,-250.443 1610.36,-235.349 1633.3,-222.883"/>
<ellipse fill="none" stroke="#d427a8" cx="978.344" cy="-294.444" rx="4" ry="4"/>
<ellipse fill="#d427a8" stroke="#d427a8" cx="1636.93" cy="-220.876" rx="4.00002" ry="4.00002"/>
</g>
<!-- PersonRole -->
<g id="node16" class="node"><title>PersonRole</title>
<ellipse fill="none" stroke="black" cx="930" cy="-203" rx="65.0538" ry="18.3848"/>
<text text-anchor="middle" x="930" y="-199.4" font-family="Times Roman,serif" font-size="14.00">PersonRole</text>
</g>
<!-- Person&#45;&gt;PersonRole -->
<g id="edge32" class="edge"><title>Person&#45;&gt;PersonRole</title>
<path fill="none" stroke="#565b4c" d="M930,-268.029C930,-256.016 930,-241.902 930,-229.898"/>
<ellipse fill="none" stroke="#565b4c" cx="930" cy="-272.382" rx="4" ry="4"/>
<ellipse fill="#565b4c" stroke="#565b4c" cx="930" cy="-225.59" rx="4" ry="4"/>
<text text-anchor="middle" x="943.5" y="-245.4" font-family="Times Roman,serif" font-size="14.00">role</text>
</g>
<!-- PersonProfile -->
<g id="node17" class="node"><title>PersonProfile</title>
<ellipse fill="none" stroke="black" cx="1432" cy="-203" rx="75.1594" ry="18.3848"/>
<text text-anchor="middle" x="1432" y="-199.4" font-family="Times Roman,serif" font-size="14.00">PersonProfile</text>
</g>
<!-- Person&#45;&gt;PersonProfile -->
<g id="edge34" class="edge"><title>Person&#45;&gt;PersonProfile</title>
<path fill="none" stroke="#a0ea76" d="M979.624,-287.194C1058.07,-274.66 1215.44,-248.73 1348,-222 1355,-220.589 1362.3,-219.044 1369.56,-217.463"/>
<ellipse fill="none" stroke="#a0ea76" cx="975.318" cy="-287.88" rx="4.00001" ry="4.00001"/>
<ellipse fill="#a0ea76" stroke="#a0ea76" cx="1373.5" cy="-216.598" rx="4.00001" ry="4.00001"/>
<text text-anchor="middle" x="1266.5" y="-245.4" font-family="Times Roman,serif" font-size="14.00">profile</text>
</g>
<!-- Person&#45;&gt;ActsAsActivity::Activity -->
<g id="edge16" class="edge"><title>Person&#45;&gt;ActsAsActivity::Activity</title>
<path fill="none" stroke="#af192f" d="M960.035,-274.518C989.203,-252.053 1026.09,-215.06 1004,-184 988.319,-161.947 926.818,-142.152 874.394,-128.758"/>
<ellipse fill="none" stroke="#af192f" cx="956.78" cy="-276.958" rx="4.00002" ry="4.00002"/>
<polygon fill="#af192f" stroke="#af192f" points="874.085,-128.681 865.48,-121.884 869.235,-127.465 864.385,-126.249 864.385,-126.249 864.385,-126.249 869.235,-127.465 863.291,-130.614 874.085,-128.681 874.085,-128.681"/>
<text text-anchor="middle" x="1041" y="-199.4" font-family="Times Roman,serif" font-size="14.00">activities</text>
</g>
<!-- Person&#45;&gt;ActsAsCommentable::Comment -->
<g id="edge20" class="edge"><title>Person&#45;&gt;ActsAsCommentable::Comment</title>
<path fill="none" stroke="#9d88b6" d="M982.438,-293.656C1125.22,-289.78 1518.79,-277.59 1647,-258 1710.51,-248.296 1728.88,-249.379 1787,-222 1853.19,-190.82 1909.2,-162.027 1888,-92 1882.43,-73.5955 1878.99,-68.048 1864,-56 1856.53,-49.9917 1847.96,-44.8694 1839.1,-40.527"/>
<ellipse fill="none" stroke="#9d88b6" cx="978.207" cy="-293.77" rx="4" ry="4"/>
<polygon fill="#9d88b6" stroke="#9d88b6" points="1838.89,-40.4316 1831.66,-32.1859 1834.34,-38.3557 1829.79,-36.2798 1829.79,-36.2798 1829.79,-36.2798 1834.34,-38.3557 1827.92,-40.3736 1838.89,-40.4316 1838.89,-40.4316"/>
<text text-anchor="middle" x="1921.5" y="-153.4" font-family="Times Roman,serif" font-size="14.00">comments</text>
</g>
<!-- ActsAsVotable::Voter -->
<g id="node30" class="node"><title>ActsAsVotable::Voter</title>
<ellipse fill="none" stroke="black" cx="1225" cy="-203" rx="113.844" ry="18.3848"/>
<text text-anchor="middle" x="1225" y="-199.4" font-family="Times Roman,serif" font-size="14.00">ActsAsVotable::Voter</text>
</g>
<!-- Person&#45;&gt;ActsAsVotable::Voter -->
<g id="edge18" class="edge"><title>Person&#45;&gt;ActsAsVotable::Voter</title>
<path fill="none" stroke="#65166b" d="M973.433,-281.455C1023.43,-265.861 1105.96,-240.124 1162.78,-222.406"/>
<ellipse fill="none" stroke="#65166b" cx="969.403" cy="-282.712" rx="4.00001" ry="4.00001"/>
<polygon fill="#65166b" stroke="#65166b" points="1162.82,-222.392 1173.71,-223.711 1167.59,-220.903 1172.37,-219.415 1172.37,-219.415 1172.37,-219.415 1167.59,-220.903 1171.03,-215.119 1162.82,-222.392 1162.82,-222.392"/>
<text text-anchor="middle" x="1122" y="-245.4" font-family="Times Roman,serif" font-size="14.00">votes</text>
</g>
<!-- ActsAsFavourite::Favourite -->
<g id="node33" class="node"><title>ActsAsFavourite::Favourite</title>
<ellipse fill="none" stroke="black" cx="377" cy="-19" rx="140.922" ry="18.3848"/>
<text text-anchor="middle" x="377" y="-15.4" font-family="Times Roman,serif" font-size="14.00">ActsAsFavourite::Favourite</text>
</g>
<!-- Person&#45;&gt;ActsAsFavourite::Favourite -->
<g id="edge22" class="edge"><title>Person&#45;&gt;ActsAsFavourite::Favourite</title>
<path fill="none" stroke="#8c358b" d="M877.532,-293.342C767.869,-289.484 521.874,-278.622 490,-258 422.774,-214.506 450.576,-166.001 420,-92 413.428,-76.0949 403.882,-59.48 395.452,-46.1263"/>
<ellipse fill="none" stroke="#8c358b" cx="881.822" cy="-293.491" rx="4" ry="4"/>
<polygon fill="#8c358b" stroke="#8c358b" points="395.274,-45.8497 393.625,-35.0085 392.559,-41.6505 389.845,-37.4512 389.845,-37.4512 389.845,-37.4512 392.559,-41.6505 386.066,-39.894 395.274,-45.8497 395.274,-45.8497"/>
<text text-anchor="middle" x="472" y="-153.4" font-family="Times Roman,serif" font-size="14.00">favourites</text>
</g>
<!-- ActsAsTaggable::Extra::Tagging -->
<g id="node35" class="node"><title>ActsAsTaggable::Extra::Tagging</title>
<ellipse fill="none" stroke="black" cx="698" cy="-19" rx="162.134" ry="18.3848"/>
<text text-anchor="middle" x="698" y="-15.4" font-family="Times Roman,serif" font-size="14.00">ActsAsTaggable::Extra::Tagging</text>
</g>
<!-- Person&#45;&gt;ActsAsTaggable::Extra::Tagging -->
<g id="edge24" class="edge"><title>Person&#45;&gt;ActsAsTaggable::Extra::Tagging</title>
<path fill="none" stroke="#2a5a4d" d="M877.754,-293.315C772.22,-289.49 541.145,-278.826 512,-258 484.622,-238.437 483.568,-215.268 496,-184 500.065,-173.775 506.727,-175.041 513,-166 544.047,-121.254 525.165,-90.8709 567,-56 574.648,-49.6248 591.455,-43.4378 610.561,-38.0057"/>
<ellipse fill="none" stroke="#2a5a4d" cx="882.048" cy="-293.468" rx="4" ry="4"/>
<polygon fill="#2a5a4d" stroke="#2a5a4d" points="610.762,-37.9511 621.594,-39.6613 615.586,-36.6355 620.41,-35.3199 620.41,-35.3199 620.41,-35.3199 615.586,-36.6355 619.226,-30.9785 610.762,-37.9511 610.762,-37.9511"/>
<text text-anchor="middle" x="579.5" y="-153.4" font-family="Times Roman,serif" font-size="14.00">owned_taggings</text>
</g>
<!-- ActsAsTaggable::Tag -->
<g id="node37" class="node"><title>ActsAsTaggable::Tag</title>
<ellipse fill="none" stroke="black" cx="109" cy="-19" rx="109.101" ry="18.3848"/>
<text text-anchor="middle" x="109" y="-15.4" font-family="Times Roman,serif" font-size="14.00">ActsAsTaggable::Tag</text>
</g>
<!-- Person&#45;&gt;ActsAsTaggable::Tag -->
<g id="edge26" class="edge"><title>Person&#45;&gt;ActsAsTaggable::Tag</title>
<path fill="none" stroke="#3aad7e" d="M875.92,-293.373C754.471,-289.405 463.204,-278.062 367,-258 286.582,-241.23 51.7887,-144.578 42,-130 22.6681,-101.21 50.8698,-66.871 76.3945,-44.0888"/>
<polygon fill="#3aad7e" stroke="#3aad7e" points="876.102,-293.378 885.952,-298.198 881.1,-293.54 886.097,-293.701 886.097,-293.701 886.097,-293.701 881.1,-293.54 886.242,-289.203 876.102,-293.378 876.102,-293.378"/>
<polygon fill="#3aad7e" stroke="#3aad7e" points="76.5876,-43.923 87.106,-40.8225 80.381,-40.6657 84.1744,-37.4084 84.1744,-37.4084 84.1744,-37.4084 80.381,-40.6657 81.2429,-33.9943 76.5876,-43.923 76.5876,-43.923"/>
<text text-anchor="middle" x="153" y="-153.4" font-family="Times Roman,serif" font-size="14.00">owned_tags</text>
</g>
<!-- Mention -->
<g id="node39" class="node"><title>Mention</title>
<ellipse fill="none" stroke="black" cx="1535" cy="-19" rx="51.1176" ry="18.3848"/>
<text text-anchor="middle" x="1535" y="-15.4" font-family="Times Roman,serif" font-size="14.00">Mention</text>
</g>
<!-- Person&#45;&gt;Mention -->
<g id="edge28" class="edge"><title>Person&#45;&gt;Mention</title>
<path fill="none" stroke="#65ba62" d="M982.128,-293.353C1116.07,-288.914 1469.9,-275.821 1586,-258 1650.35,-248.121 1668.37,-248.144 1728,-222 1796.53,-191.954 1833.37,-195.797 1869,-130 1930.17,-17.0419 1720.24,-66.5707 1595,-38 1590.69,-37.0165 1586.24,-35.8692 1581.81,-34.6344"/>
<ellipse fill="none" stroke="#65ba62" cx="978.006" cy="-293.489" rx="4" ry="4"/>
<polygon fill="#65ba62" stroke="#65ba62" points="1581.78,-34.6273 1573.45,-27.5019 1576.98,-33.2242 1572.19,-31.8211 1572.19,-31.8211 1572.19,-31.8211 1576.98,-33.2242 1570.92,-36.1403 1581.78,-34.6273 1581.78,-34.6273"/>
</g>
<!-- Person&#45;&gt;Mention -->
<g id="edge30" class="edge"><title>Person&#45;&gt;Mention</title>
<path fill="none" stroke="#d3facd" d="M982.366,-292.248C1119.27,-284.538 1479.76,-260.718 1516,-222 1527.65,-209.549 1532.53,-100.796 1534.23,-47.7944"/>
<ellipse fill="none" stroke="#d3facd" cx="978.06" cy="-292.489" rx="4" ry="4"/>
<polygon fill="#d3facd" stroke="#d3facd" points="1534.23,-47.6789 1539.03,-37.8201 1534.38,-42.6812 1534.53,-37.6835 1534.53,-37.6835 1534.53,-37.6835 1534.38,-42.6812 1530.04,-37.547 1534.23,-47.6789 1534.23,-47.6789"/>
<text text-anchor="middle" x="1582.5" y="-153.4" font-family="Times Roman,serif" font-size="14.00">mentions_made</text>
</g>
<!-- ActionPermission -->
<g id="node11" class="node"><title>ActionPermission</title>
<ellipse fill="none" stroke="black" cx="1253" cy="-399" rx="94.7523" ry="18.3848"/>
<text text-anchor="middle" x="1253" y="-395.4" font-family="Times Roman,serif" font-size="14.00">ActionPermission</text>
</g>
<!-- Attachment -->
<g id="node12" class="node"><title>Attachment</title>
<ellipse fill="none" stroke="black" cx="1435" cy="-399" rx="68.7979" ry="18.3848"/>
<text text-anchor="middle" x="1435" y="-395.4" font-family="Times Roman,serif" font-size="14.00">Attachment</text>
</g>
<!-- TimelineEntry&#45;&gt;ActsAsCommentable::Comment -->
<g id="edge48" class="edge"><title>TimelineEntry&#45;&gt;ActsAsCommentable::Comment</title>
<path fill="none" stroke="#2ab804" d="M1138.69,-103.583C1179.93,-99.954 1230.59,-95.6022 1276,-92 1386.61,-83.2263 1415.56,-92.2758 1525,-74 1555.84,-68.8506 1562.58,-63.2183 1593,-56 1620.46,-49.4831 1650.48,-42.955 1677.81,-37.2363"/>
<ellipse fill="none" stroke="#2ab804" cx="1134.55" cy="-103.948" rx="4" ry="4"/>
<polygon fill="#2ab804" stroke="#2ab804" points="1677.97,-37.2049 1688.67,-39.5731 1682.86,-36.1862 1687.76,-35.1675 1687.76,-35.1675 1687.76,-35.1675 1682.86,-36.1862 1686.84,-30.7619 1677.97,-37.2049 1677.97,-37.2049"/>
<text text-anchor="middle" x="1655" y="-61.4" font-family="Times Roman,serif" font-size="14.00">comment_threads</text>
</g>
<!-- TimelineEntry&#45;&gt;ActsAsFavourite::Favourite -->
<g id="edge52" class="edge"><title>TimelineEntry&#45;&gt;ActsAsFavourite::Favourite</title>
<path fill="none" stroke="#c8882e" d="M982.307,-99.0969C964.254,-96.471 944.959,-93.9072 927,-92 805.201,-79.0656 773.428,-90.0455 652,-74 585.089,-65.1584 510.007,-49.7653 455.223,-37.5084"/>
<ellipse fill="none" stroke="#c8882e" cx="986.548" cy="-99.7221" rx="4.00001" ry="4.00001"/>
<polygon fill="#c8882e" stroke="#c8882e" points="454.992,-37.4564 446.226,-30.8686 450.115,-36.3575 445.237,-35.2586 445.237,-35.2586 445.237,-35.2586 450.115,-36.3575 444.248,-39.6485 454.992,-37.4564 454.992,-37.4564"/>
<text text-anchor="middle" x="687" y="-61.4" font-family="Times Roman,serif" font-size="14.00">favourites</text>
</g>
<!-- TimelineEntry&#45;&gt;ActsAsTaggable::Extra::Tagging -->
<g id="edge54" class="edge"><title>TimelineEntry&#45;&gt;ActsAsTaggable::Extra::Tagging</title>
<path fill="none" stroke="#a36380" d="M994.851,-95.161C952.282,-84.1467 894.193,-69.1409 843,-56 820.641,-50.2606 796.336,-44.0481 774.128,-38.3823"/>
<ellipse fill="none" stroke="#a36380" cx="998.742" cy="-96.1677" rx="4.00001" ry="4.00001"/>
<polygon fill="#a36380" stroke="#a36380" points="774.11,-38.3778 765.533,-31.5458 769.265,-37.142 764.42,-35.9063 764.42,-35.9063 764.42,-35.9063 769.265,-37.142 763.308,-40.2667 774.11,-38.3778 774.11,-38.3778"/>
<text text-anchor="middle" x="936.5" y="-61.4" font-family="Times Roman,serif" font-size="14.00">taggings</text>
</g>
<!-- TimelineEntry&#45;&gt;ActsAsTaggable::Extra::Tagging -->
<g id="edge58" class="edge"><title>TimelineEntry&#45;&gt;ActsAsTaggable::Extra::Tagging</title>
<path fill="none" stroke="#9cb6e8" d="M981.37,-99.4266C963.574,-96.828 944.63,-94.1937 927,-92 887.766,-87.1183 785.472,-91.4594 750,-74 736.847,-67.526 725.282,-56.2494 716.42,-45.5855"/>
<ellipse fill="none" stroke="#9cb6e8" cx="985.499" cy="-100.034" rx="4.00001" ry="4.00001"/>
<polygon fill="#9cb6e8" stroke="#9cb6e8" points="716.359,-45.5083 713.728,-34.8627 713.273,-41.5741 710.187,-37.6399 710.187,-37.6399 710.187,-37.6399 713.273,-41.5741 706.647,-40.4172 716.359,-45.5083 716.359,-45.5083"/>
<text text-anchor="middle" x="794.5" y="-61.4" font-family="Times Roman,serif" font-size="14.00">tag_taggings</text>
</g>
<!-- TimelineEntry&#45;&gt;ActsAsTaggable::Tag -->
<g id="edge56" class="edge"><title>TimelineEntry&#45;&gt;ActsAsTaggable::Tag</title>
<path fill="none" stroke="#e19063" d="M980.953,-98.5668C963.3,-96.0255 944.523,-93.6324 927,-92 725.492,-73.2284 673.511,-92.7373 472,-74 362.415,-63.8103 335.776,-54.7483 227,-38 217.464,-36.5317 207.498,-34.9699 197.575,-33.3971"/>
<polygon fill="#e19063" stroke="#e19063" points="981.306,-98.6187 990.543,-104.528 986.252,-99.3471 991.199,-100.076 991.199,-100.076 991.199,-100.076 986.252,-99.3471 991.855,-95.6236 981.306,-98.6187 981.306,-98.6187"/>
<polygon fill="#e19063" stroke="#e19063" points="197.558,-33.3945 188.389,-27.3795 192.62,-32.6091 187.683,-31.8236 187.683,-31.8236 187.683,-31.8236 192.62,-32.6091 186.976,-36.2677 197.558,-33.3945 197.558,-33.3945"/>
<text text-anchor="middle" x="506.5" y="-61.4" font-family="Times Roman,serif" font-size="14.00">base_tags</text>
</g>
<!-- TimelineEntry&#45;&gt;ActsAsTaggable::Tag -->
<g id="edge60" class="edge"><title>TimelineEntry&#45;&gt;ActsAsTaggable::Tag</title>
<path fill="none" stroke="#3359ae" d="M981.25,-98.4707C963.514,-95.9197 944.626,-93.5464 927,-92 788.585,-79.8558 439.319,-95.2039 302,-74 255.062,-66.7521 203.387,-51.6279 165.33,-39.0707"/>
<polygon fill="#3359ae" stroke="#3359ae" points="981.649,-98.5294 990.885,-104.44 986.595,-99.2589 991.542,-99.9884 991.542,-99.9884 991.542,-99.9884 986.595,-99.2589 992.198,-95.5365 981.649,-98.5294 981.649,-98.5294"/>
<polygon fill="#3359ae" stroke="#3359ae" points="164.95,-38.944 156.893,-31.5054 160.208,-37.3586 155.466,-35.7732 155.466,-35.7732 155.466,-35.7732 160.208,-37.3586 154.039,-40.0411 164.95,-38.944 164.95,-38.944"/>
<text text-anchor="middle" x="317" y="-61.4" font-family="Times Roman,serif" font-size="14.00">tags</text>
</g>
<!-- TimelineEntry&#45;&gt;Mention -->
<g id="edge46" class="edge"><title>TimelineEntry&#45;&gt;Mention</title>
<path fill="none" stroke="#024619" d="M1138.87,-103.525C1239.82,-94.2483 1398.54,-79.0354 1411,-74 1423.04,-69.1377 1422.66,-62.3096 1434,-56 1443.69,-50.6079 1466.14,-42.2518 1487.42,-34.8441"/>
<ellipse fill="none" stroke="#024619" cx="1134.79" cy="-103.9" rx="4" ry="4"/>
<polygon fill="#024619" stroke="#024619" points="1487.61,-34.779 1498.53,-35.7759 1492.34,-33.1502 1497.06,-31.5214 1497.06,-31.5214 1497.06,-31.5214 1492.34,-33.1502 1495.6,-27.2668 1487.61,-34.779 1487.61,-34.779"/>
<text text-anchor="middle" x="1477.5" y="-61.4" font-family="Times Roman,serif" font-size="14.00">mentionates</text>
</g>
<!-- TimelineEntry&#45;&gt;Mention -->
<g id="edge50" class="edge"><title>TimelineEntry&#45;&gt;Mention</title>
<path fill="none" stroke="#eccc8e" d="M1133.57,-100.72C1218.17,-88.7594 1357.25,-66.8998 1475,-38 1479.12,-36.9892 1483.37,-35.8481 1487.61,-34.6395"/>
<ellipse fill="none" stroke="#eccc8e" cx="1129.51" cy="-101.29" rx="4.00001" ry="4.00001"/>
<polygon fill="#eccc8e" stroke="#eccc8e" points="1487.86,-34.5666 1498.73,-36.0413 1492.65,-33.1466 1497.45,-31.7266 1497.45,-31.7266 1497.45,-31.7266 1492.65,-33.1466 1496.17,-27.4118 1487.86,-34.5666 1487.86,-34.5666"/>
</g>
<!-- ActsAsViewable::View -->
<g id="node57" class="node"><title>ActsAsViewable::View</title>
<ellipse fill="none" stroke="black" cx="997" cy="-19" rx="119.001" ry="18.3848"/>
<text text-anchor="middle" x="997" y="-15.4" font-family="Times Roman,serif" font-size="14.00">ActsAsViewable::View</text>
</g>
<!-- TimelineEntry&#45;&gt;ActsAsViewable::View -->
<g id="edge62" class="edge"><title>TimelineEntry&#45;&gt;ActsAsViewable::View</title>
<path fill="none" stroke="#c47ea0" d="M1039.5,-85.2768C1031.68,-73.0831 1022.34,-58.5129 1014.41,-46.1429"/>
<ellipse fill="none" stroke="#c47ea0" cx="1041.9" cy="-89.0153" rx="4.00002" ry="4.00002"/>
<polygon fill="#c47ea0" stroke="#c47ea0" points="1014.32,-46.0076 1012.71,-35.1606 1011.62,-41.7988 1008.92,-37.5899 1008.92,-37.5899 1008.92,-37.5899 1011.62,-41.7988 1005.13,-40.0192 1014.32,-46.0076 1014.32,-46.0076"/>
<text text-anchor="middle" x="1051" y="-61.4" font-family="Times Roman,serif" font-size="14.00">views</text>
</g>
<!-- ActsAsVotable::Vote -->
<g id="node59" class="node"><title>ActsAsVotable::Vote</title>
<ellipse fill="none" stroke="black" cx="1243" cy="-19" rx="109.101" ry="18.3848"/>
<text text-anchor="middle" x="1243" y="-15.4" font-family="Times Roman,serif" font-size="14.00">ActsAsVotable::Vote</text>
</g>
<!-- TimelineEntry&#45;&gt;ActsAsVotable::Vote -->
<g id="edge64" class="edge"><title>TimelineEntry&#45;&gt;ActsAsVotable::Vote</title>
<path fill="none" stroke="#66f3ce" d="M1097.54,-90.5612C1127.39,-75.8754 1167.6,-56.0971 1198.17,-41.0551"/>
<ellipse fill="none" stroke="#66f3ce" cx="1093.89" cy="-92.36" rx="4.00002" ry="4.00002"/>
<polygon fill="#66f3ce" stroke="#66f3ce" points="1198.36,-40.9644 1209.31,-40.5877 1202.84,-38.7571 1207.33,-36.5499 1207.33,-36.5499 1207.33,-36.5499 1202.84,-38.7571 1205.34,-32.5121 1198.36,-40.9644 1198.36,-40.9644"/>
<text text-anchor="middle" x="1185" y="-61.4" font-family="Times Roman,serif" font-size="14.00">votes</text>
</g>
<!-- Version -->
<g id="node61" class="node"><title>Version</title>
<ellipse fill="none" stroke="black" cx="1418" cy="-19" rx="48.0833" ry="18.3848"/>
<text text-anchor="middle" x="1418" y="-15.4" font-family="Times Roman,serif" font-size="14.00">Version</text>
</g>
<!-- TimelineEntry&#45;&gt;Version -->
<g id="edge66" class="edge"><title>TimelineEntry&#45;&gt;Version</title>
<path fill="none" stroke="#a92eb8" d="M1123.31,-96.6524C1185.41,-83.0012 1279.96,-61.1576 1361,-38 1364.78,-36.9185 1368.69,-35.7431 1372.6,-34.5248"/>
<ellipse fill="none" stroke="#a92eb8" cx="1119.06" cy="-97.5848" rx="4.00001" ry="4.00001"/>
<polygon fill="#a92eb8" stroke="#a92eb8" points="1372.74,-34.4805 1383.64,-35.7242 1377.51,-32.959 1382.27,-31.4376 1382.27,-31.4376 1382.27,-31.4376 1377.51,-32.959 1380.9,-27.151 1372.74,-34.4805 1372.74,-34.4805"/>
</g>
<!-- PredicatePermission -->
<g id="node14" class="node"><title>PredicatePermission</title>
<ellipse fill="none" stroke="black" cx="1631" cy="-399" rx="109.101" ry="18.3848"/>
<text text-anchor="middle" x="1631" y="-395.4" font-family="Times Roman,serif" font-size="14.00">PredicatePermission</text>
</g>
<!-- Permission -->
<g id="node15" class="node"><title>Permission</title>
<ellipse fill="none" stroke="black" cx="1821" cy="-399" rx="63.1385" ry="18.3848"/>
<text text-anchor="middle" x="1821" y="-395.4" font-family="Times Roman,serif" font-size="14.00">Permission</text>
</g>
<!-- PersonProfileVersion -->
<g id="node63" class="node"><title>PersonProfileVersion</title>
<ellipse fill="none" stroke="black" cx="1396" cy="-111" rx="111.222" ry="18.3848"/>
<text text-anchor="middle" x="1396" y="-107.4" font-family="Times Roman,serif" font-size="14.00">PersonProfileVersion</text>
</g>
<!-- PersonProfile&#45;&gt;PersonProfileVersion -->
<g id="edge68" class="edge"><title>PersonProfile&#45;&gt;PersonProfileVersion</title>
<path fill="none" stroke="#aa0377" d="M1421.77,-176.863C1417.16,-165.081 1411.71,-151.147 1407.01,-139.137"/>
<ellipse fill="none" stroke="#aa0377" cx="1423.26" cy="-180.657" rx="4.00001" ry="4.00001"/>
<polygon fill="#aa0377" stroke="#aa0377" points="1406.92,-138.902 1407.46,-127.95 1405.1,-134.246 1403.27,-129.59 1403.27,-129.59 1403.27,-129.59 1405.1,-134.246 1399.08,-131.23 1406.92,-138.902 1406.92,-138.902"/>
<text text-anchor="middle" x="1446" y="-153.4" font-family="Times Roman,serif" font-size="14.00">versions</text>
</g>
</g>
</svg>
